<svg width="16" height="16"  x="0px" y="0px" viewBox="0 0 100 125" fill="#FFF" xmlns="http://www.w3.org/2000/svg"><rect  width="100" height="125" fill="#000000" rx="4"/><path d="M94.287,86.921c-0.037-1.23-1.11-2.178-2.341-2.178h-5.543l6.459-6.459c0.574-0.574,0.658-1.517,0.115-2.12  c-0.579-0.643-1.571-0.663-2.175-0.059l-8.368,8.367c-5.81-0.97-10.989-4.497-13.983-9.683l-14.6-25.289  c-1.788-3.098-1.445-7.056,1.016-9.652c1.14-1.203,2.656-2.069,4.442-2.376c1.272-0.219,5.02-0.298,5.397-0.305l8.377,8.377  c0.293,0.292,0.676,0.439,1.059,0.439c0.361,0,0.722-0.129,1.006-0.388c0.64-0.581,0.606-1.617-0.006-2.228l-6.2-6.2l5.05,0  c0.783,0,1.482-0.572,1.556-1.351c0.085-0.894-0.615-1.646-1.491-1.646h-5.295l6.379-6.379c0.574-0.574,0.658-1.517,0.115-2.12  c-0.579-0.643-1.571-0.663-2.175-0.059l-8.558,8.557c0,0-3.922-0.424-5.217-0.652c-4.637-0.817-7.797-6.266-6.312-10.932  c0.763-2.395,4.588-8.948,4.588-8.948l8.125-1.873c0.764-0.176,1.317-0.891,1.215-1.668c-0.118-0.89-0.971-1.463-1.823-1.267  l-7.366,1.698l-1.698-7.366c-0.209-0.908-1.205-1.43-2.099-1.02c-0.649,0.298-0.972,1.039-0.812,1.735l1.892,8.211  c0,0-3.298,6.045-5.448,8.522c-3.319,3.824-9.486,3.975-12.623,0c-0.834-1.057-3.096-4.405-3.096-4.405l2.333-12.27  c0.154-0.813-0.379-1.597-1.192-1.752c-0.814-0.154-1.598,0.379-1.752,1.192l-1.683,8.855l-4.094-7.091  c-0.427-0.74-1.389-0.978-2.115-0.507c-0.681,0.442-0.844,1.375-0.438,2.078l4.135,7.162l-8.779-1.669  c-0.858-0.163-1.689,0.443-1.772,1.337c-0.073,0.78,0.509,1.473,1.278,1.62l11.252,2.139c0,0,1.954,3.931,2.5,5.287  c1.949,4.841-1.579,11.584-9.528,11.584c-3.291,0-9.407,0-9.407,0l-6.325-6.325c-0.658-0.657-1.775-0.576-2.318,0.244  c-0.395,0.596-0.278,1.399,0.228,1.904l5.316,5.316l-5.288,5.288C5.592,41.21,5.56,42.245,6.2,42.826  c0.285,0.258,0.645,0.388,1.006,0.388c0.383,0,0.767-0.146,1.059-0.439l5.608-5.607c0,0,8.489,0,11.832,0  c5.617,0,9.488,6.583,7.82,11.238c-1.054,2.941-5.829,11.054-5.829,11.054l-8.141,1.777c-0.764,0.167-1.324,0.875-1.231,1.651  c0.107,0.891,0.949,1.477,1.808,1.29l7.385-1.612l1.612,7.385c0.153,0.701,0.773,1.179,1.463,1.179c0.106,0,0.213-0.011,0.321-0.035  c0.808-0.176,1.321-0.975,1.144-1.783l-1.808-8.283c0,0,4.626-8.282,6.7-10.647c0.108-0.123,0.219-0.243,0.333-0.358  c3.72-3.775,10.079-2.774,12.729,1.816l14.547,25.197c3.761,6.514,10.334,10.89,17.669,11.95l8.575,8.575  C91.096,97.854,91.479,98,91.863,98c0.36,0,0.721-0.129,1.006-0.388c0.64-0.581,0.606-1.618-0.005-2.229l-6.145-6.145h5.322  C93.305,89.238,94.326,88.194,94.287,86.921z M64.631,34.17h-0.022C64.631,34.155,64.64,34.154,64.631,34.17z M41.654,37.998  c-2.654,0-4.806-2.152-4.806-4.806c0-2.654,2.152-4.806,4.806-4.806c2.654,0,4.806,2.152,4.806,4.806  C46.46,35.846,44.308,37.998,41.654,37.998z"/></svg>
